<?xml version="1.0" standalone="no"?>
<!DOCTYPE svg PUBLIC "-//W3C//DTD SVG 20010904//EN"
 "http://www.w3.org/TR/2001/REC-SVG-20010904/DTD/svg10.dtd">
<svg version="1.0" xmlns="http://www.w3.org/2000/svg"
 width="900.000000pt" height="512.000000pt" viewBox="0 0 900.000000 512.000000"
 preserveAspectRatio="xMidYMid meet">

<g transform="translate(0.000000,512.000000) scale(0.100000,-0.100000)"
fill="#000000" stroke="none">
<path d="M2045 3896 c-60 -26 -105 -94 -105 -158 0 -9 27 -140 60 -290 34
-150 97 -436 141 -636 43 -200 86 -376 93 -390 32 -62 87 -93 162 -93 43 0 54
-4 50 -14 -3 -8 -88 -212 -190 -454 -203 -479 -206 -490 -163 -566 26 -46 92
-85 146 -85 55 0 118 36 145 83 13 23 97 216 187 430 l163 387 270 0 271 0
139 -333 c209 -498 215 -510 268 -541 56 -33 110 -34 168 -3 59 31 93 94 87
157 -2 29 -70 200 -187 475 -100 237 -184 437 -187 446 -4 14 5 17 52 18 61 1
98 16 132 53 75 80 49 219 -50 267 -42 21 -55 21 -608 21 l-565 0 -126 569
c-95 432 -131 577 -148 600 -43 62 -136 87 -205 57z"/>
<path d="M6808 3890 c-75 -40 -69 -16 -303 -1092 l-28 -128 -565 0 c-554 0
-567 0 -609 -21 -99 -48 -125 -187 -50 -267 34 -37 73 -53 132 -53 30 -1 55
-4 55 -7 0 -3 -84 -204 -186 -446 -119 -282 -189 -457 -191 -486 -13 -132 137
-223 254 -155 52 31 56 38 198 375 222 528 211 505 234 503 12 0 133 -1 269
-2 l249 -1 163 -387 c89 -214 173 -407 186 -430 43 -75 144 -104 224 -63 53
27 83 72 88 135 4 50 -6 76 -183 496 -103 244 -189 449 -192 455 -3 8 15 12
52 13 31 0 69 8 84 16 40 20 79 69 90 113 14 49 259 1162 272 1231 14 72 5
114 -34 158 -56 64 -137 80 -209 43z"/>
<path d="M3335 3366 c-37 -17 -80 -62 -94 -99 -28 -73 5 -162 73 -202 l43 -25
486 0 487 0 0 -745 0 -745 -72 0 c-57 0 -82 -5 -112 -23 -47 -26 -86 -93 -86
-147 0 -57 39 -120 90 -147 42 -23 49 -23 350 -23 301 0 308 0 350 23 51 27
90 90 90 145 0 56 -36 119 -84 147 -35 20 -56 25 -114 25 l-72 0 0 745 0 745
487 0 486 0 43 25 c115 67 106 235 -17 297 -32 17 -108 18 -1169 18 -926 -1
-1141 -3 -1165 -14z"/>
</g>
</svg>
