<?xml version="1.0" standalone="no"?>
<!DOCTYPE svg PUBLIC "-//W3C//DTD SVG 20010904//EN"
 "http://www.w3.org/TR/2001/REC-SVG-20010904/DTD/svg10.dtd">
<svg version="1.0" xmlns="http://www.w3.org/2000/svg"
 width="920.000000pt" height="920.000000pt" viewBox="0 0 920.000000 920.000000"
 preserveAspectRatio="xMidYMid meet">

<g transform="translate(0.000000,920.000000) scale(0.100000,-0.100000)"
fill="#000000" stroke="none">
<path d="M1402 7890 c-157 -42 -312 -158 -390 -292 -80 -136 -110 -309 -78
-458 45 -216 214 -409 420 -480 339 -116 710 70 823 414 22 69 26 99 26 196 0
98 -4 126 -26 191 -69 203 -210 346 -409 416 -101 36 -261 42 -366 13z"/>
<path d="M7473 7890 c-222 -58 -390 -225 -459 -456 -27 -89 -25 -248 5 -344
108 -355 481 -549 827 -430 92 32 165 79 245 159 304 303 229 806 -152 1015
-134 74 -316 95 -466 56z"/>
<path d="M1426 6424 c-191 -41 -352 -169 -440 -349 -67 -136 -66 -116 -66
-1202 0 -1093 -2 -1054 71 -1202 76 -154 212 -271 384 -328 79 -27 83 -27 407
-31 l327 -3 6 33 c3 18 25 170 50 338 50 340 74 494 81 528 3 17 0 22 -16 22
-20 0 -20 4 -20 784 0 852 -1 864 -56 1003 -123 310 -416 473 -728 407z"/>
<path d="M7500 6425 c-198 -45 -374 -202 -453 -403 -57 -147 -57 -153 -57
-1008 0 -780 0 -784 -20 -784 -16 0 -19 -5 -16 -22 7 -33 30 -179 81 -528 25
-168 48 -320 51 -338 l7 -34 326 5 c361 4 375 6 511 73 99 49 220 169 272 269
78 152 72 62 76 1185 2 892 1 1014 -13 1085 -46 227 -210 411 -430 481 -101
32 -241 40 -335 19z"/>
<path d="M498 6250 c-46 -14 -85 -48 -107 -93 -21 -43 -21 -45 -21 -1401 0
-1215 2 -1365 16 -1429 40 -175 146 -332 294 -434 l46 -31 -88 -784 c-50 -440
-86 -801 -83 -823 22 -156 245 -205 333 -73 25 38 29 67 111 809 l86 769 658
0 659 0 -6 -27 c-3 -16 -14 -91 -26 -168 -11 -77 -27 -183 -35 -235 -53 -337
-125 -840 -125 -868 0 -107 141 -228 338 -291 138 -44 278 -63 477 -64 252 -1
420 29 576 100 l79 36 0 685 c0 678 0 686 21 730 32 64 86 97 164 97 78 0 125
-29 160 -99 l25 -50 0 -688 0 -688 48 -24 c129 -65 301 -99 502 -99 201 0 373
34 502 99 l47 24 3 517 3 518 23 38 c74 119 253 114 321 -8 14 -26 17 -91 21
-538 l5 -508 80 -36 c90 -39 222 -76 340 -94 117 -18 370 -15 490 6 314 54
555 200 555 337 0 18 -29 227 -64 463 -36 237 -76 509 -91 605 -14 96 -28 187
-31 203 l-6 27 659 0 659 0 83 -751 c46 -414 88 -767 93 -786 23 -82 129 -137
219 -113 64 17 125 82 133 140 4 28 -27 338 -82 828 l-88 783 67 49 c87 63
171 164 219 265 74 154 70 67 70 1581 l0 1358 -21 44 c-64 132 -254 131 -327
-2 -16 -29 -17 -132 -22 -1401 l-5 -1370 -22 -47 c-30 -66 -105 -143 -172
-175 l-56 -28 -731 -3 -730 -2 -43 292 c-24 161 -63 421 -86 578 -24 157 -73
485 -110 730 -36 245 -72 464 -81 487 -17 47 -70 99 -112 110 -35 10 -3389 10
-3424 0 -42 -11 -95 -63 -112 -110 -9 -23 -47 -256 -86 -517 -38 -261 -77
-518 -85 -570 -24 -151 -125 -827 -137 -918 l-11 -82 -731 2 c-727 3 -731 3
-778 25 -66 30 -143 105 -175 172 l-28 56 -5 1370 c-5 1250 -6 1373 -22 1400
-45 82 -135 121 -220 95z"/>
</g>
</svg>
